# xmcd CD database file
#
# Track frame offsets:
#	187
#	33880
#	61005
#	88422
#	115310
#	151640
#
# Disc length: 2402 seconds
#
# Revision: 2
# Processed by: cddbd v1.5.2PL0 Copyright (c) Steve Scherf et al.
# Submitted via: CDex 1.70beta2
#
DISCID=3e096006
DTITLE=Milt Jackson - Ain't But a Few of Us Left
DYEAR=1992
DGENRE=Jazz
TTITLE0=Ain't But a Few of Us Left
TTITLE1=Stuffy
TTITLE2=A Time for Love
TTITLE3=Body and Soul
TTITLE4=If I Should Lose You
TTITLE5=What Am I Here For
EXTD=YEAR: 1992
EXTT0=
EXTT1=
EXTT2=
EXTT3=
EXTT4=
EXTT5=
PLAYORDER=
